<?xml version="1.0" encoding="utf-8"?>
<!-- Generator: Adobe Illustrator 16.0.0, SVG Export Plug-In . SVG Version: 6.00 Build 0)  -->
<!DOCTYPE svg PUBLIC "-//W3C//DTD SVG 1.1//EN" "http://www.w3.org/Graphics/SVG/1.1/DTD/svg11.dtd">
<svg version="1.1" id="Layer_1" xmlns="http://www.w3.org/2000/svg" xmlns:xlink="http://www.w3.org/1999/xlink" x="0px" y="0px"
	 width="612px" height="612px" viewBox="0 0 612 612" enable-background="new 0 0 612 612" xml:space="preserve">
<line fill="none" stroke="#D1D3D4" stroke-width="10" stroke-miterlimit="10" x1="0" y1="0" x2="612" y2="612"/>
<line fill="none" stroke="#D1D3D4" stroke-width="10" stroke-miterlimit="10" x1="612" y1="0" x2="0" y2="612"/>
<g>
	<path fill="#D1D3D4" d="M306,10c39.964,0,78.728,7.825,115.214,23.257c35.246,14.908,66.902,36.252,94.09,63.439
		c27.188,27.188,48.531,58.844,63.439,94.09C594.175,227.272,602,266.036,602,306s-7.825,78.728-23.257,115.214
		c-14.908,35.246-36.252,66.902-63.439,94.09s-58.844,48.531-94.09,63.439C384.728,594.175,345.964,602,306,602
		s-78.728-7.825-115.213-23.257c-35.246-14.908-66.903-36.252-94.09-63.439c-27.187-27.188-48.531-58.844-63.439-94.09
		C17.825,384.728,10,345.964,10,306s7.825-78.728,23.257-115.213c14.908-35.246,36.252-66.903,63.439-94.09
		c27.188-27.187,58.844-48.531,94.09-63.439C227.272,17.825,266.036,10,306,10 M306,0C137.001,0,0,137.001,0,306
		s137.001,306,306,306s306-137.001,306-306S474.999,0,306,0L306,0z"/>
</g>
</svg>
